<svg width="22" height="22" viewBox="0 0 22 22" fill="none" xmlns="http://www.w3.org/2000/svg">
<path fill-rule="evenodd" clip-rule="evenodd" d="M21.2826 14.4109L19.207 13.2249L11.7117 17.5043C11.2708 17.7568 10.7292 17.7568 10.2884 17.5043L2.79496 13.2249L0.717397 14.4109C0.568497 14.4961 0.476624 14.6545 0.476624 14.8261C0.476624 14.9976 0.568497 15.156 0.717397 15.2412L10.7609 20.9803C10.9079 21.0643 11.0883 21.0643 11.2353 20.9803L21.2788 15.2412C21.4277 15.156 21.5196 14.9976 21.5196 14.8261C21.5196 14.6545 21.4277 14.4961 21.2788 14.4109H21.2826Z" fill="#258AFF"/>
<path fill-rule="evenodd" clip-rule="evenodd" d="M21.2826 10.1066L19.207 8.92053L11.7117 13.2C11.2708 13.4525 10.7292 13.4525 10.2884 13.2L2.79496 8.92053L0.717397 10.1066C0.568497 10.1918 0.476624 10.3502 0.476624 10.5217C0.476624 10.6933 0.568497 10.8517 0.717397 10.9369L10.7609 16.676C10.9079 16.76 11.0883 16.76 11.2353 16.676L21.2788 10.9369C21.4277 10.8517 21.5196 10.6933 21.5196 10.5217C21.5196 10.3502 21.4277 10.1918 21.2788 10.1066H21.2826Z" fill="#258AFF"/>
<path fill-rule="evenodd" clip-rule="evenodd" d="M21.2826 5.80226L11.2391 0.0631288C11.0921 -0.0208395 10.9117 -0.0208395 10.7647 0.0631288L0.721212 5.80226C0.572312 5.88744 0.480438 6.04585 0.480438 6.21739C0.480438 6.38893 0.572312 6.54734 0.721212 6.63252L10.7647 12.3717C10.9117 12.4556 11.0921 12.4556 11.2391 12.3717L21.2826 6.63252C21.4315 6.54734 21.5234 6.38893 21.5234 6.21739C21.5234 6.04585 21.4315 5.88744 21.2826 5.80226Z" fill="#258AFF"/>
</svg>
